<svg id="Calque_1" data-name="Calque 1" xmlns="http://www.w3.org/2000/svg" viewBox="0 0 424.8 139.32"><defs><style>.cls-1{fill:#111;}</style></defs><title>Logo</title><path class="cls-1" d="M203.62,397.74a72,72,0,0,1,4.86-26.82A63.85,63.85,0,0,1,222,349.77a61.29,61.29,0,0,1,20.79-14,73.4,73.4,0,0,1,53.46,0,61.29,61.29,0,0,1,20.79,14,63.87,63.87,0,0,1,13.5,21.15,76.68,76.68,0,0,1,0,53.73A63.63,63.63,0,0,1,317,445.89a60.17,60.17,0,0,1-20.79,13.86,74.64,74.64,0,0,1-53.46,0A60.17,60.17,0,0,1,222,445.89a63.61,63.61,0,0,1-13.5-21.24A72.74,72.74,0,0,1,203.62,397.74Zm11.88,0a63.55,63.55,0,0,0,3.78,22.14,52.57,52.57,0,0,0,10.8,17.82,49.93,49.93,0,0,0,17,11.88,60.28,60.28,0,0,0,44.82,0,49.94,49.94,0,0,0,17-11.88,52.57,52.57,0,0,0,10.8-17.82,66.72,66.72,0,0,0,0-44.28,52.57,52.57,0,0,0-10.8-17.82,49.94,49.94,0,0,0-17-11.88,60.3,60.3,0,0,0-44.82,0,49.93,49.93,0,0,0-17,11.88,52.57,52.57,0,0,0-10.8,17.82A63.55,63.55,0,0,0,215.5,397.74Z" transform="translate(-203.62 -325.38)"/><path class="cls-1" d="M359,325.38h10.8V416.1l41-37.62h15.84l-42.84,38,47.88,45H415.3l-45.54-43.92v43.92H359Z" transform="translate(-203.62 -325.38)"/><path class="cls-1" d="M445.54,401.7q0-2.34-.18-5.67t-.27-6.75q-.09-3.42-.27-6.39t-.18-4.59h10.8q.18,4.68.27,9a28.06,28.06,0,0,0,.45,5.58h.54a29.16,29.16,0,0,1,10.8-11.79,31.47,31.47,0,0,1,17.64-5q9.72,0,15.84,3.06a25.52,25.52,0,0,1,9.63,8,30.15,30.15,0,0,1,4.86,11.43A65.13,65.13,0,0,1,516.82,412v49.5H506v-49a52.93,52.93,0,0,0-.9-9.81,26.08,26.08,0,0,0-3.15-8.55,16.5,16.5,0,0,0-6.3-6,21.59,21.59,0,0,0-10.53-2.25,30.73,30.73,0,0,0-11.25,2.07,24.21,24.21,0,0,0-9.18,6.3,30.5,30.5,0,0,0-6.12,10.62,45.25,45.25,0,0,0-2.25,15v41.58h-10.8Z" transform="translate(-203.62 -325.38)"/><path class="cls-1" d="M540.94,419.88a46.38,46.38,0,0,1,3.24-17.55,41.92,41.92,0,0,1,9-13.86A40.07,40.07,0,0,1,567,379.38a47.05,47.05,0,0,1,17.64-3.24,46.38,46.38,0,0,1,17.55,3.24,40.72,40.72,0,0,1,23,23,49.15,49.15,0,0,1,0,35.1,40.72,40.72,0,0,1-23,23,46.38,46.38,0,0,1-17.55,3.24A47.05,47.05,0,0,1,567,460.38a40,40,0,0,1-13.86-9.09,41.86,41.86,0,0,1-9-13.86A46.36,46.36,0,0,1,540.94,419.88Z" transform="translate(-203.62 -325.38)"/><rect class="cls-1" x="59.95" y="15.29" width="11.86" height="114.14"/></svg>